<?xml version="1.0" encoding="UTF-8" standalone="no"?>
<!-- Created with Inkscape (http://www.inkscape.org/) -->

<svg
   width="456.80069"
   height="456.80069"
   viewBox="0 0 120.86184 120.86185"
   version="1.1"
   id="svg1"
   xml:space="preserve"
   xmlns="http://www.w3.org/2000/svg"
   xmlns:svg="http://www.w3.org/2000/svg"><defs
     id="defs1"><mask
       maskUnits="userSpaceOnUse"
       id="mask-powermask-path-effect46"><path
         id="mask-powermask-path-effect46_box"
         style="fill:#ffffff;fill-opacity:1"
         d="M 54.431049,31.657943 H 112.16365 V 126.31246 H 54.431049 Z" /><path
         id="path46"
         style="fill:#ffffff;fill-opacity:1"
         d="M 54.431049,31.657943 H 112.16365 V 126.31246 H 54.431049 Z" /><path
         id="path47"
         style="fill:#ffffff;fill-opacity:1"
         d="M 54.431049,31.657943 H 112.16365 V 126.31246 H 54.431049 Z" /><path
         id="path48"
         style="fill:#ffffff;fill-opacity:1"
         d="M 54.431049,31.657943 H 112.16365 V 126.31246 H 54.431049 Z" /><g
         id="g49"
         style="display:inline;opacity:1"><circle
           style="opacity:1;fill:#000000;fill-opacity:1;stroke-width:0.24204"
           id="circle48"
           cx="83.394768"
           cy="86.972839"
           r="2.3853805"
           d="m 85.780148,86.972839 a 2.3853805,2.3853805 0 0 1 -2.38538,2.385381 2.3853805,2.3853805 0 0 1 -2.385381,-2.385381 2.3853805,2.3853805 0 0 1 2.385381,-2.38538 2.3853805,2.3853805 0 0 1 2.38538,2.38538 z" /><path
           style="opacity:1;fill:#000000;fill-opacity:1;stroke-width:0.264583"
           d="m 83.079166,78.25052 c -0.327531,-2.021321 -0.695573,-4.011134 -0.479521,-6.455243 0.0076,-0.138573 0.01274,-0.27701 0.11693,-0.42095 1.75136,-2.232702 3.567787,-4.465405 5.659312,-6.698107 0.08271,-0.191733 0.200711,-0.354766 0.108542,-0.568359 -1.368594,-3.385429 -2.664083,-6.519242 -4.338662,-9.843473 -0.158767,-0.368227 -0.352614,-0.358779 -0.620117,-0.231511 -2.711617,1.29088 -4.94868,2.745264 -7.104659,4.344832 -0.212761,0.114581 -0.18551,0.301166 -0.0887,0.508619 0.810679,1.118191 1.621357,2.180197 2.432036,3.636367 -2.278072,-1.459535 -4.19545,-3.089924 -5.636045,-4.946158 -0.242729,-0.290377 -0.265318,-0.580753 0.05262,-0.87113 3.714521,-3.131143 7.801332,-5.396977 11.857834,-7.129105 0.33356,-0.133337 0.527901,-0.202767 0.818555,0.264583 0.348961,0.647341 0.783602,1.31498 1.075929,2.040533 1.663222,4.128105 3.179887,7.694735 3.950947,12.567704 0.08088,0.69729 0.08563,1.687882 -0.591332,2.431651 -1.76289,1.802962 -3.861771,3.702324 -5.833997,5.55762 -0.215935,0.271947 -0.226065,0.524098 -0.292325,0.774663 -0.248271,1.725553 -0.704159,3.370325 -1.087347,5.037464 z"
           id="path49" /></g></mask></defs><g
     id="g45"
     style="display:inline;opacity:1"
     transform="matrix(0.91473944,0,0,0.92542732,-0.46810927,-0.62946321)"><a
       id="a1"><ellipse
         style="opacity:1;fill:none;stroke:#17b34e;stroke-width:4.66459;stroke-dasharray:none;stroke-opacity:1"
         id="ellipse38"
         cx="66.328339"
         cy="60.395386"
         rx="44.637459"
         ry="44.953304" /><ellipse
         style="opacity:1;fill:none;stroke:#17b34e;stroke-width:2.90551;stroke-dasharray:none;stroke-opacity:1"
         id="ellipse39"
         cx="66.250618"
         cy="60.317116"
         rx="50.051796"
         ry="50.405949" /><path
         style="fill:#17b34e;fill-opacity:1;stroke:none;stroke-width:6.30476;stroke-linecap:butt;stroke-linejoin:round;stroke-miterlimit:4.6;stroke-dasharray:none;stroke-opacity:0;paint-order:stroke fill markers"
         d="M 55.907824,7.4851265 C 61.941245,5.9701932 69.234601,5.9217158 76.785157,7.589096 76.721132,6.5283828 76.638083,5.5850659 76.361629,4.5243528 74.303432,4.0963344 72.332758,3.7784956 70.481685,3.6112156 69.741905,2.6683141 68.986173,1.7414732 68.173669,0.87180703 c -1.382134,-0.0845228 -2.499419,-0.0623458 -3.516976,0 C 63.833695,1.6953134 63.071747,2.6417857 62.321202,3.6112156 60.265516,3.7284827 58.289946,3.9869407 56.441256,4.4690098 56.193202,5.5721099 56.030641,6.4180619 55.907824,7.4851265 Z"
         id="path39" /><g
         id="g41"
         style="display:inline;stroke:#44aa00"
         transform="matrix(0.85303259,0,0,0.85906841,-4.8585429,-6.5993074)"><path
           style="opacity:1;fill:#17b34e;fill-opacity:1;stroke:none;stroke-width:7.36499;stroke-linecap:butt;stroke-linejoin:round;stroke-miterlimit:4.6;stroke-dasharray:none;stroke-opacity:0;paint-order:stroke fill markers"
           d="m 70.46917,140.25506 c 2.284729,7.6301 3.312526,13.30496 4.555216,19.31411 0.108473,0.84446 -0.8655,1.12765 -1.229907,0.77439 -3.227507,-4.63984 -5.972192,-9.36016 -8.472702,-14.12117 -1.898656,1.04542 -3.828881,1.98035 -5.96733,2.1865 -1.766825,-2.52055 -3.213504,-5.0411 -4.373007,-7.56165 z"
           id="path40" /><path
           style="baseline-shift:baseline;display:inline;overflow:visible;opacity:1;vector-effect:none;fill:#17b34e;fill-opacity:1;stroke:none;stroke-linejoin:round;stroke-miterlimit:4.6;stroke-opacity:1;paint-order:stroke fill markers;enable-background:accumulate;stop-color:#000000;stop-opacity:1"
           d="M 57.632787,17.473926 C 31.145851,25.967373 11.127555,53.319095 12.875436,83.128361 14.673423,113.79215 38.258972,139.24455 69.466797,145.40039 l 0.989994,-5.14303 C 41.431586,134.53205 19.839944,110.99601 18.481348,82.718898 17.188391,55.807936 31.035216,30.561379 62.124224,18.130137 c 0.327011,-0.925568 -3.50293,-0.92146 -4.491437,-0.656211 z"
           id="path41" /></g><g
         id="g43"
         transform="matrix(-0.85303259,0,0,0.85906841,137.79659,-6.5993074)"
         style="stroke:#44aa00"><path
           style="opacity:1;fill:#17b34e;fill-opacity:1;stroke:none;stroke-width:7.36499;stroke-linecap:butt;stroke-linejoin:round;stroke-miterlimit:4.6;stroke-dasharray:none;stroke-opacity:0;paint-order:stroke fill markers"
           d="m 70.46917,140.25506 c 2.284729,7.6301 3.312526,13.30496 4.555216,19.31411 0.108473,0.84446 -0.8655,1.12765 -1.229907,0.77439 -3.227507,-4.63984 -5.972192,-9.36016 -8.472702,-14.12117 -1.898656,1.04542 -3.828881,1.98035 -5.96733,2.1865 -1.766825,-2.52055 -3.213504,-5.0411 -4.373007,-7.56165 z"
           id="path42" /><path
           style="baseline-shift:baseline;display:inline;overflow:visible;opacity:1;vector-effect:none;fill:#17b34e;fill-opacity:1;stroke:none;stroke-linejoin:round;stroke-miterlimit:4.6;stroke-opacity:1;paint-order:stroke fill markers;enable-background:accumulate;stop-color:#000000;stop-opacity:1"
           d="M 57.632787,17.473926 C 31.145851,25.967373 11.127555,53.319095 12.875436,83.128361 14.673423,113.79215 38.258972,139.24455 69.466797,145.40039 l 0.989994,-5.14303 C 41.431586,134.53205 19.839944,110.99601 18.481348,82.718898 17.188391,55.807936 31.035216,30.561379 62.124224,18.130137 c 0.327011,-0.925568 -3.50293,-0.92146 -4.491437,-0.656211 z"
           id="path43" /></g><path
         id="path44"
         style="display:inline;fill:#17b34e;fill-opacity:1;stroke:none;stroke-width:4.41719;stroke-linejoin:round;stroke-miterlimit:4.6;paint-order:stroke fill markers"
         d="m 62.714587,114.47639 h 7.266348 v 16.70953 h -7.266348 z" /></a><path
       style="display:inline;opacity:1;fill:#f9f9f9;fill-opacity:1;stroke:none;stroke-width:5.16001;stroke-linecap:butt;stroke-linejoin:round;stroke-miterlimit:4.6;stroke-dasharray:none;stroke-opacity:1;paint-order:stroke fill markers"
       d="m 56.313834,116.51858 c -0.386284,-0.26343 -0.394792,-0.91071 0.12191,-1.17901 2.406335,-1.68548 4.625531,-3.44923 6.54236,-4.61012 3.144438,-1.90436 5.878663,-3.42066 8.574935,-5.80586 0.220553,-0.19511 0.585027,-0.87359 0.793965,-1.27307 0.369769,-1.16639 0.471313,-2.36722 0.40162,-3.903081 -0.06527,-1.438306 -0.06498,-2.821272 -0.35201,-3.025695 -1.580896,-2.825622 -2.769114,-4.736797 -3.869532,-6.564974 -3.014673,-1.803283 -4.290419,-3.150415 -6.312792,-5.390886 -0.136825,-0.130671 -0.275245,0.159379 -0.246037,0.280193 0.61479,2.542957 3.501148,5.691907 4.383064,6.144985 0.365536,0.187792 0.386406,0.184806 0.356046,0.28674 0.170345,0.565849 -1.408476,0.229264 -1.710577,-0.03106 C 63.469396,90.66643 62.18799,89.07484 61.59534,88.302504 60.376038,86.750572 59.691607,85.004141 59.134374,83.211457 l -1.785937,-5.820833 c -1.039102,-3.298671 -1.491382,-6.670696 -1.852084,-10.054167 -0.09163,-2.018966 -0.133401,-4.047903 0.198438,-6.151562 0.210796,-2.955933 0.901116,-5.324107 1.785937,-7.871354 0.9848,-2.190911 1.596766,-4.158121 3.369861,-6.822009 1.287951,-2.000445 2.881555,-3.869895 4.77076,-5.612659 1.282543,-1.176361 2.567741,-2.353253 4.443357,-3.648228 1.432954,-1.07337 2.632813,-1.83382 4.844145,-2.840982 1.464312,-0.703439 4.340912,-1.298322 6.190999,-1.576337 2.351868,-0.281362 4.840314,-0.122048 7.252774,0.02073 1.149654,0.137965 3.090831,0.499279 4.406711,1.052808 1.721727,0.525424 2.794287,1.282011 4.109711,2.051217 0.155663,0.105992 0.392248,0.243111 0.735264,0.710347 0.637568,0.06733 0.825141,0.207269 0.991416,0.304498 l 1.777344,0.979292 2.73043,2.241976 c 0.67214,0.68805 1.28815,1.3761 1.70453,2.06415 2.02762,2.330023 3.0918,4.28016 4.08937,6.862663 0.62934,2.153205 1.27208,4.585968 1.46222,5.67453 0.20581,1.178217 0.2551,2.477311 0.30333,3.54772 0.0143,2.840623 -0.21432,5.640897 -0.70998,8.359281 -0.0262,0.143641 -0.90282,4.720939 -2.05797,6.63326 -0.63789,1.056002 -1.06382,1.563549 -1.59,2.55312 -0.35169,1.349797 -0.51625,2.824087 -0.11301,4.394328 0.28387,1.122267 0.60848,2.767612 1.35918,3.7044 0.0721,0.08998 -0.0742,0.107439 -0.13993,0.121583 -0.59112,0.02094 -0.91558,0.0091 -1.33646,-0.0238 -1.05324,-0.204624 -1.66951,-0.862284 -2.14704,-1.699659 l -0.77809,-1.683797 c -0.0359,-0.09385 -0.18342,-0.09026 -0.21931,0.0061 -0.63339,1.114002 -0.94014,2.325005 -1.2009,3.548592 0.0608,0.688037 0.34806,1.360954 0.75687,1.928765 0.42297,0.588327 0.77958,0.959504 1.44143,1.178661 0.14015,0.100839 0.0355,0.227512 -0.0468,0.306942 -0.6668,0.436459 -1.26383,0.192719 -1.87089,0.04677 -0.51735,-0.224635 -0.86937,-0.531938 -1.12253,-0.88867 l -0.0468,2.946646 0.43749,1.831896 c 0.005,0.296653 -0.29167,0.298496 -0.4537,0.133996 -0.49626,-0.643207 -0.75293,-1.351755 -1.012776,-2.059438 -0.149875,-0.389767 -0.151322,-0.779535 -0.187089,-1.169302 -0.05606,-0.251876 -0.177985,-0.05948 -0.315004,0.120412 -1.015731,3.602319 -4.329898,6.866884 -4.736389,8.906612 -0.234664,0.87675 -0.393862,3.223815 -0.25539,4.162755 0.07072,0.56374 0.114854,1.12178 0.395709,1.73054 1.340801,2.29029 2.82192,2.59586 4.162722,3.95225 4.454477,2.15748 8.039847,5.40362 11.973677,8.2553 0.38607,0.24241 0.41745,0.6316 0.0848,0.89614 -18.022487,12.51196 -39.924481,10.91501 -54.620936,0.002 z"
       id="path45"
       mask="url(#mask-powermask-path-effect46)"
       transform="matrix(0.85303259,0,0,0.85906841,-4.8585429,-6.5993074)" /></g><rect
     style="display:none;opacity:0.478115;fill:#0000ff;fill-opacity:1;stroke:#17b34e;stroke-width:0"
     id="rect1"
     width="120.86185"
     height="120.86185"
     x="0"
     y="0"
     ry="0" /></svg>
